<svg xmlns="http://www.w3.org/2000/svg" viewBox="0 0 213.85 46"><defs><style>.cls-1{fill:#191919;}</style></defs><title>Asset 2</title><g id="Layer_2" data-name="Layer 2"><g id="Layer_1-2" data-name="Layer 1"><path class="cls-1" d="M39,28.67l-4.29.85,4.78,2.75a1.51,1.51,0,0,1,.75,1,1.59,1.59,0,0,1-.16,1.24,1.64,1.64,0,0,1-2.24.59l-4.77-2.72,1.41,4.11a1.48,1.48,0,0,1-.31,1.63,1.71,1.71,0,0,1-1.55.52,1.45,1.45,0,0,1-1.24-1.08l-2.62-7.7-7-4v8L27.15,40a1.67,1.67,0,0,1,.44,1,1.39,1.39,0,0,1-.29.94,2.34,2.34,0,0,1-.73.64,1.29,1.29,0,0,1-.95.14,1.58,1.58,0,0,1-.93-.56l-2.88-3.29v5.5A1.67,1.67,0,0,1,20.17,46,1.57,1.57,0,0,1,19,45.51a1.59,1.59,0,0,1-.49-1.15v-5.5l-2.87,3.29a1.61,1.61,0,0,1-.94.56,1.29,1.29,0,0,1-1-.14,2.46,2.46,0,0,1-.73-.64,1.38,1.38,0,0,1-.28-.94,1.61,1.61,0,0,1,.44-1l5.33-6.11v-8l-6.95,4L9,37.55A1.47,1.47,0,0,1,7.7,38.63a1.73,1.73,0,0,1-1.55-.52,1.48,1.48,0,0,1-.31-1.63l1.42-4.11L2.48,35.09A1.63,1.63,0,0,1,.25,34.5a1.63,1.63,0,0,1-.17-1.24,1.49,1.49,0,0,1,.76-1l4.77-2.75-4.28-.85a1.51,1.51,0,0,1-1.08-.74A1.73,1.73,0,0,1,0,26.73a1.68,1.68,0,0,1,.65-1A1.52,1.52,0,0,1,2,25.44l8,1.59,7-4L9.93,19,2,20.56a1.35,1.35,0,0,1-.34,0A1.53,1.53,0,0,1,.5,20.13a1.7,1.7,0,0,1-.48-1A1.75,1.75,0,0,1,.3,18a1.44,1.44,0,0,1,1-.66l4.28-.85L.84,13.73a1.49,1.49,0,0,1-.76-1A1.63,1.63,0,0,1,.25,11.5a1.57,1.57,0,0,1,1-.77,1.48,1.48,0,0,1,1.23.18l4.78,2.72L5.84,9.52a1.48,1.48,0,0,1,.31-1.63A1.73,1.73,0,0,1,7.7,7.37,1.47,1.47,0,0,1,9,8.45l2.62,7.7,7,4v-8L13.19,6a1.61,1.61,0,0,1-.44-1A1.38,1.38,0,0,1,13,4.07a2.46,2.46,0,0,1,.73-.64,1.29,1.29,0,0,1,1-.14,1.61,1.61,0,0,1,.94.56l2.87,3.29V1.64A1.59,1.59,0,0,1,19,.49,1.57,1.57,0,0,1,20.17,0a1.55,1.55,0,0,1,1.15.49,1.55,1.55,0,0,1,.49,1.15v5.5l2.88-3.29a1.58,1.58,0,0,1,.93-.56,1.29,1.29,0,0,1,.95.14,2.34,2.34,0,0,1,.73.64,1.39,1.39,0,0,1,.29.94,1.67,1.67,0,0,1-.44,1l-5.34,6.11v8l7-4,2.62-7.7a1.45,1.45,0,0,1,1.24-1.08,1.71,1.71,0,0,1,1.55.52,1.48,1.48,0,0,1,.31,1.63l-1.41,4.11,4.77-2.72a1.64,1.64,0,0,1,2.24.59,1.59,1.59,0,0,1,.16,1.24,1.51,1.51,0,0,1-.75,1l-4.78,2.75,4.29.85A1.48,1.48,0,0,1,40,18a1.81,1.81,0,0,1,.28,1.11,1.77,1.77,0,0,1-.49,1,1.51,1.51,0,0,1-1.13.46,1.31,1.31,0,0,1-.33,0l-8-1.59-7,4,7,4,8-1.59a1.5,1.5,0,0,1,1.28.27,1.69,1.69,0,0,1,.66,1,1.78,1.78,0,0,1-.22,1.2A1.53,1.53,0,0,1,39,28.67Z"/><path class="cls-1" d="M72.1,32.88A15.28,15.28,0,0,1,65.82,34c-7.73,0-12.43-4.88-12.43-12.28,0-8,5.56-12.86,13-12.86a14,14,0,0,1,5.93,1.08l-1,3.54a11.89,11.89,0,0,0-4.77-.94c-4.94,0-8.52,3.11-8.52,9,0,5.35,3.14,8.78,8.49,8.78a12.32,12.32,0,0,0,4.84-.91Z"/><path class="cls-1" d="M91.86,24.64c0,6.47-4.55,9.36-9,9.36-5,0-8.82-3.43-8.82-9.07s3.8-9.32,9.11-9.32S91.86,19.3,91.86,24.64Zm-13.26.18c0,3.4,1.66,6,4.37,6,2.53,0,4.3-2.49,4.3-6C87.27,22,86,18.86,83,18.86S78.6,21.9,78.6,24.82Z"/><path class="cls-1" d="M112.22,24.64c0,6.47-4.55,9.36-9,9.36-5,0-8.82-3.43-8.82-9.07s3.8-9.32,9.1-9.32S112.22,19.3,112.22,24.64ZM99,24.82c0,3.4,1.66,6,4.37,6,2.53,0,4.3-2.49,4.3-6,0-2.74-1.23-5.89-4.26-5.89S99,21.9,99,24.82Z"/><path class="cls-1" d="M115.87,8h4.48V33.6h-4.48Z"/><path class="cls-1" d="M125.33,9.58a37.21,37.21,0,0,1,6.47-.5c3.29,0,5.31.39,7,1.55a5.12,5.12,0,0,1,2.53,4.55,5.65,5.65,0,0,1-4.05,5.27v.08a6.13,6.13,0,0,1,4.91,6,6.32,6.32,0,0,1-2.34,5c-1.74,1.51-4.59,2.27-9,2.27a44.23,44.23,0,0,1-5.46-.32Zm4.41,9.61H132c3.07,0,4.8-1.45,4.8-3.5,0-2.28-1.73-3.33-4.55-3.33a12.75,12.75,0,0,0-2.53.18Zm0,11.2a15.34,15.34,0,0,0,2.35.1c2.85,0,5.38-1.08,5.38-4.08,0-2.81-2.46-4-5.53-4h-2.2Z"/><path class="cls-1" d="M146,21.68c0-2.38,0-4.08-.15-5.67h3.87l.14,3.36H150a5.26,5.26,0,0,1,4.81-3.76,4.9,4.9,0,0,1,1,.11v4.19a6.45,6.45,0,0,0-1.3-.14,3.92,3.92,0,0,0-4,3.36,7.71,7.71,0,0,0-.14,1.37v9.1H146Z"/><path class="cls-1" d="M172.14,29.37a28.35,28.35,0,0,0,.25,4.23h-4l-.28-2H168a6.56,6.56,0,0,1-5.2,2.35,5.23,5.23,0,0,1-5.53-5.24c0-4.44,3.94-6.68,10.44-6.65v-.28c0-1.16-.47-3.07-3.58-3.07a9.3,9.3,0,0,0-4.73,1.3l-.87-2.89a12.62,12.62,0,0,1,6.36-1.56c5.64,0,7.26,3.58,7.26,7.41ZM167.81,25c-3.15-.07-6.14.62-6.14,3.29a2.33,2.33,0,0,0,2.52,2.53,3.61,3.61,0,0,0,3.47-2.42,3.2,3.2,0,0,0,.15-1Z"/><path class="cls-1" d="M176.83,21.25c0-2,0-3.72-.14-5.24h3.9l.22,2.64h.11a6.31,6.31,0,0,1,5.59-3c3.07,0,6.25,2,6.25,7.55V33.6h-4.44V23.67c0-2.53-.94-4.44-3.36-4.44a3.73,3.73,0,0,0-3.47,2.6,4.58,4.58,0,0,0-.18,1.44V33.6h-4.48Z"/><path class="cls-1" d="M213.71,8V28.65c0,1.81.07,3.76.14,5h-4l-.18-2.78h-.07A6.34,6.34,0,0,1,203.89,34c-4.19,0-7.52-3.58-7.52-9,0-5.88,3.65-9.39,7.88-9.39a5.56,5.56,0,0,1,4.94,2.32h.08V8Zm-4.44,15.38a6.4,6.4,0,0,0-.11-1.15A3.9,3.9,0,0,0,205.33,19c-2.85,0-4.44,2.53-4.44,5.82s1.59,5.56,4.4,5.56a3.92,3.92,0,0,0,3.83-3.14,4.88,4.88,0,0,0,.15-1.3Z"/></g></g></svg>